<svg preserveAspectRatio="xMidYMid meet" viewBox="76.8016 324.0976 582.912 88.32" xmlns="http://www.w3.org/2000/svg" version="1.0" style="max-height: 500px" width="582.912" height="88.32">

<g stroke="none" fill="#000000" transform="translate(0.000000,736.000000) scale(0.100000,-0.100000)">
<path d="M3475 4065 c-94 -21 -261 -82 -371 -135 -102 -49 -207 -131 -219&#10;-171 -4 -10 -10 -19 -14 -19 -4 0 -31 -23 -61 -51 -65 -61 -273 -166 -390&#10;-198 -95 -26 -244 -42 -326 -34 -57 5 -64 8 -75 35 -25 61 -122 118 -215 126&#10;-79 6 -126 -9 -334 -108 -254 -121 -385 -151 -507 -115 -78 23 -130 67 -164&#10;138 -25 52 -29 56 -24 27 12 -73 97 -156 185 -180 59 -17 179 -12 259 11 41&#10;11 155 58 253 105 217 103 280 122 359 105 69 -15 142 -59 169 -103 l20 -33&#10;-47 -12 c-53 -13 -73 -34 -73 -73 0 -40 41 -95 70 -95 35 0 70 56 70 111 l0&#10;44 89 0 c124 0 230 16 333 50 111 37 259 110 323 160 27 21 51 37 53 36 1 -2&#10;-3 -24 -9 -48 -11 -40 -10 -53 11 -117 63 -198 191 -228 518 -120 l93 31 39&#10;-36 c45 -41 95 -57 265 -87 155 -27 379 -29 479 -5 109 26 202 87 243 159 8&#10;15 13 15 63 -4 77 -29 170 -35 254 -15 38 9 140 50 225 90 86 41 184 81 217&#10;90 123 32 250 13 298 -45 23 -27 24 -31 10 -57 -18 -35 -18 -72 0 -72 20 0 29&#10;17 36 64 4 32 11 42 40 57 115 60 283 43 480 -46 121 -55 196 -71 274 -56 79&#10;14 231 99 213 117 -3 4 -20 -6 -38 -20 -62 -52 -129 -79 -210 -84 -84 -5 -140&#10;9 -239 58 -108 54 -195 75 -315 75 -101 0 -115 -2 -164 -27 l-52 -28 -25 29&#10;c-37 44 -104 66 -199 65 -91 -2 -171 -27 -320 -102 -222 -111 -349 -131 -492&#10;-77 -40 16 -41 17 -31 46 6 17 8 54 4 87 -4 31 -9 71 -10 88 -6 53 -15 68 -50&#10;91 -83 54 -273 93 -451 93 l-100 0 -26 58 c-28 63 -72 105 -136 128 -48 17&#10;-180 16 -258 -1z m239 -9 c66 -20 110 -57 140 -117 14 -29 24 -54 22 -57 -6&#10;-5 -130 -20 -135 -16 -2 2 8 17 23 34 45 55 32 107 -34 134 -84 33 -217 15&#10;-407 -58 -131 -50 -310 -140 -370 -186 -68 -51 -68 -36 -1 25 66 59 116 88&#10;245 142 241 99 409 131 517 99z m-11 -27 c46 -12 77 -41 77 -70 0 -27 -81&#10;-109 -107 -109 -33 0 -208 -47 -301 -81 -48 -17 -145 -60 -216 -95 -70 -35&#10;-141 -64 -157 -64 -43 0 -110 30 -118 54 -13 33 -2 53 53 95 124 96 414 226&#10;591 266 75 17 129 18 178 4z m432 -169 c188 -22 345 -84 345 -137 0 -10 -11&#10;-5 -37 17 -87 77 -211 109 -418 111 -88 0 -133 4 -120 9 28 12 123 12 230 0z&#10;m-255 -9 c0 -8 -101 -21 -164 -21 -43 0 -23 13 32 21 71 10 132 10 132 0z&#10;m384 -36 c75 -20 151 -61 182 -98 23 -28 24 -31 8 -48 -9 -10 -36 -28 -60 -40&#10;-42 -20 -47 -20 -106 -6 -76 19 -232 36 -350 39 -62 1 -88 6 -88 14 0 7 4 15&#10;9 18 4 3 14 27 21 53 7 27 14 56 17 65 2 9 14 19 26 22 44 10 283 -3 341 -19z&#10;m-644 1 c-25 -7 -58 -20 -75 -28 -16 -9 -45 -19 -62 -23 -33 -6 -83 -55 -83&#10;-80 0 -29 -132 -69 -265 -81 -96 -8 -93 -3 32 60 157 79 404 165 473 164 16 0&#10;9 -4 -20 -12z m256 -28 c-4 -23 -17 -61 -29 -83 -19 -33 -28 -41 -57 -43 -19&#10;-2 -64 -12 -99 -23 -81 -24 -114 -24 -162 3 -68 38 -64 48 47 116 83 52 106&#10;57 288 71 16 1 18 -4 12 -41z m-276 7 c0 -2 -26 -21 -57 -41 -32 -20 -61 -42&#10;-65 -48 -5 -7 -8 -7 -8 0 0 11 47 49 95 76 34 19 35 20 35 13z m-155 -85 c-10&#10;-11 -20 -18 -23 -15 -3 3 3 14 13 25 10 11 20 18 23 15 3 -3 -3 -14 -13 -25z&#10;m67 -110 c17 -10 60 -26 95 -36 l65 -18 -38 -19 c-92 -47 -173 -76 -182 -64&#10;-39 48 -56 198 -24 216 14 8 20 3 35 -25 10 -19 32 -43 49 -54z m983 -42 c-4&#10;-26 -10 -50 -15 -53 -8 -5 -125 69 -135 86 -4 5 3 9 13 9 11 0 42 15 68 33&#10;l49 33 13 -30 c9 -19 11 -46 7 -78z m-1557 44 c15 -4 90 -7 167 -6 139 1 156&#10;4 266 49 13 5 18 -3 23 -46 4 -28 16 -74 26 -102 11 -28 19 -52 17 -53 -11&#10;-10 -204 -68 -263 -80 -124 -23 -188 -15 -244 33 -58 49 -108 192 -86 248 5&#10;15 10 13 37 -9 17 -14 43 -29 57 -34z m586 27 c42 -24 103 -23 204 5 35 10 68&#10;16 74 14 7 -3 -12 -24 -42 -47 -47 -37 -58 -42 -89 -36 -76 13 -141 36 -168&#10;60 -34 30 -26 32 21 4z m674 -3 c103 -16 117 -21 75 -30 -147 -30 -533 -58&#10;-533 -39 0 4 21 27 47 51 l48 43 135 -5 c74 -3 177 -12 228 -20z m181 -78 c32&#10;-24 67 -48 77 -54 18 -10 17 -13 -10 -48 -41 -55 -101 -94 -180 -119 -103 -32&#10;-370 -32 -536 1 -154 31 -202 47 -235 82 l-29 30 32 11 c18 6 68 28 112 50&#10;l80 38 192 5 c119 4 237 13 308 25 63 10 118 19 122 20 5 0 34 -18 67 -41z&#10;m1186 -57 c-3 -12 -11 -21 -16 -21 -6 0 -8 3 -6 8 2 4 7 16 11 26 9 25 20 13&#10;11 -13z m-3538 -97 c-5 -48 -35 -99 -57 -99 -17 0 -47 42 -55 77 -10 39 23 68&#10;76 68 l42 0 -6 -46z"/>
</g>
</svg>