<svg preserveAspectRatio="xMidYMid meet" viewBox="253.61333333333334 155.552925 215.89333333333335 898.164" xmlns="http://www.w3.org/2000/svg" version="1.0" style="max-height: 500px" width="215.89333333333335" height="898.164">

<g stroke="none" fill="#000000" transform="translate(0.000000,1227.000000) scale(0.100000,-0.100000)">
<path d="M4148 10683 c-118 -125 -203 -283 -283 -527 -80 -241 -86 -286 -95&#10;-746 -9 -427 -13 -458 -76 -645 -40 -118 -71 -177 -92 -171 -76 23 -125 28&#10;-234 24 -140 -4 -187 -20 -250 -82 -93 -91 -59 -231 63 -252 61 -11 62 -12 25&#10;-47 -55 -53 -71 -118 -42 -175 12 -23 12 -30 0 -46 -11 -16 -22 -18 -71 -13&#10;-32 3 -92 16 -133 29 l-75 24 -7 104 c-8 128 -12 147 -39 211 -40 93 -150 130&#10;-210 70 -80 -80 4 -271 161 -366 68 -41 67 -37 50 -185 -55 -487 -44 -659 52&#10;-859 50 -104 143 -202 237 -249 53 -27 76 -32 133 -32 l68 0 92 -78 c51 -42&#10;106 -87 123 -98 25 -19 27 -24 16 -38 -18 -21 -27 -20 -64 8 -40 30 -109 49&#10;-150 41 -18 -3 -79 -22 -137 -42 -143 -49 -229 -51 -315 -8 -33 17 -63 32 -67&#10;33 -21 10 -3 -33 37 -86 57 -75 134 -128 220 -149 60 -15 72 -15 145 0 84 16&#10;228 79 268 117 13 12 29 19 37 16 22 -8 93 -165 115 -251 24 -99 40 -235 40&#10;-340 0 -102 -24 -340 -44 -436 -15 -70 -79 -219 -94 -219 -4 0 -27 38 -52 83&#10;-64 118 -211 262 -399 391 -79 55 -166 119 -193 143 -27 24 -53 41 -58 38 -5&#10;-3 9 -42 29 -88 21 -45 64 -161 96 -257 70 -213 90 -254 149 -308 99 -91 270&#10;-126 368 -76 50 26 48 29 88 -156 74 -336 122 -476 191 -555 l32 -36 -26 -147&#10;c-39 -217 -45 -267 -73 -612 -43 -536 -42 -1067 1 -1377 27 -194 96 -463 118&#10;-463 5 0 6 10 3 23 -46 159 -82 328 -102 475 -12 85 -17 229 -21 524 -4 351&#10;-2 446 16 695 25 341 45 526 72 683 11 63 23 130 26 148 6 32 7 34 37 26 17&#10;-5 65 -9 106 -8 58 0 85 5 119 23 101 53 188 187 217 336 9 44 19 157 23 250&#10;7 154 10 176 35 230 15 33 37 70 48 82 12 13 19 26 15 29 -9 9 -123 -94 -251&#10;-226 -162 -168 -244 -306 -321 -543 -18 -53 -35 -100 -39 -104 -17 -17 -84&#10;111 -120 227 -27 90 -114 434 -123 486 -4 23 3 44 29 85 58 92 79 167 102 369&#10;42 357 -2 664 -118 834 -25 36 -26 40 -11 62 19 30 26 30 89 0 144 -68 320&#10;-93 459 -66 133 26 272 98 366 190 55 55 111 158 111 205 0 27 -3 25 -28 -25&#10;-25 -50 -34 -58 -99 -91 -146 -73 -298 -93 -579 -75 -140 9 -141 9 -195 -17&#10;-30 -15 -63 -33 -75 -42 -19 -14 -23 -13 -54 10 -58 43 -92 69 -114 88 -21 17&#10;-20 17 19 10 22 -5 81 -8 130 -7 99 1 219 35 332 93 124 63 224 174 261 289&#10;42 131 54 410 27 636 l-14 119 43 49 c56 64 227 358 208 358 -4 0 -46 -14 -95&#10;-31 -48 -18 -89 -30 -92 -27 -2 2 2 26 10 53 22 72 20 187 -5 235 -25 49 -90&#10;89 -158 97 -59 7 -182 -18 -260 -53 l-54 -24 -41 34 c-23 18 -57 41 -75 50&#10;-25 13 -32 22 -26 34 31 73 79 209 95 271 32 123 38 193 40 451 5 528 12 586&#10;99 850 79 241 158 385 284 517 22 24 37 45 34 48 -2 3 -29 -21 -60 -52z m-614&#10;-2098 c38 -8 71 -16 73 -19 9 -8 -67 -113 -113 -157 -92 -85 -245 -130 -327&#10;-95 -110 47 -103 172 13 241 78 45 224 58 354 30z m151 -44 c17 -11 41 -29 55&#10;-40 l25 -19 -23 -40 c-26 -46 -28 -79 -7 -109 20 -28 51 -34 76 -14 24 19 28&#10;66 9 111 -16 39 -14 41 90 74 160 51 253 44 314 -24 39 -44 51 -88 43 -164 -7&#10;-68 -36 -166 -49 -166 -21 0 -257 -119 -319 -160 -255 -173 -486 -432 -567&#10;-638 -55 -139 -66 -195 -66 -339 -1 -142 -5 -148 -47 -70 -56 104 -82 167&#10;-116 280 -36 120 -36 125 -37 302 -1 200 13 285 62 385 l27 55 105 11 c132 14&#10;293 60 398 113 54 27 102 85 102 121 0 67 -102 130 -220 136 -36 2 -66 4 -67&#10;4 -1 0 22 24 50 53 29 30 66 77 82 105 17 28 35 52 40 52 6 0 24 -9 40 -19z&#10;m-924 -114 c19 -12 45 -44 59 -72 20 -41 25 -67 28 -168 l5 -120 -43 24 c-85&#10;48 -159 139 -182 222 -28 107 46 172 133 114z m1039 -6 c27 -65 -10 -121 -45&#10;-67 -15 23 -15 27 0 60 21 44 29 45 45 7z m-149 -125 c56 -27 79 -53 79 -90 0&#10;-41 -34 -74 -114 -110 -72 -32 -86 -33 -59 -3 48 52 52 103 10 132 -30 21&#10;-107 18 -173 -6 -40 -15 -77 -41 -129 -90 l-73 -69 -12 29 c-30 73 49 163 179&#10;206 63 21 91 25 166 22 59 -2 102 -9 126 -21z m-97 -92 c41 -40 -3 -106 -101&#10;-152 -47 -22 -72 -27 -135 -27 -45 0 -82 5 -88 11 -24 24 104 138 188 169 51&#10;19 117 19 136 -1z m856 -23 c0 -34 -183 -311 -205 -311 -20 0 24 233 48 257&#10;10 10 127 58 150 62 4 0 7 -3 7 -8z m-207 -108 c-8 -27 -17 -90 -20 -142 l-6&#10;-93 -46 -34 c-75 -56 -208 -114 -331 -145 -187 -48 -198 -65 -173 -266 15&#10;-120 15 -133 -1 -206 -32 -145 -127 -296 -230 -366 -23 -16 -48 -26 -54 -22&#10;-7 4 -24 36 -38 72 -24 59 -26 72 -21 164 8 142 29 223 97 360 124 253 394&#10;515 679 657 74 38 140 68 147 68 9 0 8 -12 -3 -47z m-1125 -90 c28 -3 52 -10&#10;52 -15 0 -5 -11 -31 -25 -59 -67 -131 -88 -411 -47 -601 42 -193 104 -336 198&#10;-460 24 -31 44 -61 44 -67 0 -24 -96 -12 -158 20 -195 97 -313 332 -314 624 0&#10;95 35 529 48 592 l4 21 72 -25 c40 -13 97 -27 126 -30z m146 31 c25 -9 19 -24&#10;-9 -24 -24 0 -32 10 -18 23 8 8 8 8 27 1z m959 -221 c3 -5 10 -64 17 -133 15&#10;-170 0 -477 -29 -570 -52 -168 -195 -288 -421 -355 -139 -42 -295 -33 -365 21&#10;l-20 15 20 11 c11 6 54 45 95 87 55 55 86 97 112 151 68 138 80 223 56 412&#10;-18 144 -3 164 144 199 45 11 108 29 138 40 64 23 198 94 220 115 16 16 27 18&#10;33 7z m317 -1103 c-60 -84 -217 -183 -343 -215 -93 -23 -196 -29 -277 -15 -91&#10;15 -183 45 -229 73 l-34 20 28 22 c15 13 51 31 80 40 49 17 64 17 198 5 80 -7&#10;178 -10 219 -7 95 8 252 48 314 81 64 33 70 32 44 -4z m-1040 -152 c62 -32 61&#10;-49 -2 -90 -132 -87 -300 -121 -409 -82 -51 18 -149 96 -170 135 -9 17 -7 18&#10;33 2 26 -9 75 -16 123 -17 67 0 96 6 185 36 124 44 178 47 240 16z m-497 -771&#10;c29 -24 99 -77 157 -117 135 -94 237 -185 296 -263 49 -65 104 -166 104 -191&#10;0 -8 -20 -22 -45 -31 -63 -24 -173 -17 -246 17 -118 54 -157 112 -222 333 -20&#10;66 -52 158 -71 204 -20 45 -36 85 -36 87 0 10 16 1 63 -39z m1353 -618 c-8&#10;-35 -19 -138 -25 -229 -5 -91 -17 -191 -25 -223 -48 -176 -153 -292 -283 -313&#10;-48 -7 -139 11 -146 31 -8 19 67 235 118 343 25 52 66 124 92 161 42 60 272&#10;305 280 298 2 -2 -3 -33 -11 -68z"/>
</g>
</svg>