<svg preserveAspectRatio="xMidYMid meet" viewBox="35.13864077669903 262.4664 687.4097087378641 197.06400000000002" xmlns="http://www.w3.org/2000/svg" version="1.0" style="max-height: 500px" width="687.4097087378641" height="197.06400000000002">

<g stroke="none" fill="#000000" transform="translate(0.000000,714.000000) scale(0.100000,-0.100000)">
<path d="M1286 4368 c-28 -40 4 -57 166 -89 79 -15 173 -31 210 -35 63 -6 70&#10;-10 114 -53 57 -56 95 -133 128 -263 14 -54 33 -109 42 -123 9 -14 58 -54 108&#10;-88 202 -137 323 -309 260 -371 -41 -41 -136 -4 -264 105 -107 90 -153 113&#10;-270 134 -129 24 -190 48 -268 108 -98 74 -230 159 -271 173 -21 8 -34 18 -32&#10;26 29 95 32 119 27 209 -9 142 -42 221 -109 256 -84 43 -372 -17 -470 -98 -60&#10;-49 -54 -81 42 -217 106 -150 125 -191 126 -272 0 -81 -18 -114 -131 -237&#10;-184 -199 -355 -455 -341 -511 3 -15 5 -15 11 3 50 133 186 330 344 498 99&#10;105 115 129 132 199 10 37 9 57 -4 108 -15 60 -41 103 -155 268 -28 41 -51 82&#10;-51 92 0 68 230 162 402 164 74 1 78 0 112 -33 57 -55 71 -106 71 -251 0 -155&#10;-11 -182 -81 -199 -58 -15 -193 -82 -217 -109 -10 -11 -17 -31 -15 -44 2 -19&#10;9 -23 33 -22 36 2 140 61 213 122 50 42 53 43 87 32 40 -13 144 -79 263 -168&#10;90 -67 148 -90 300 -118 101 -18 136 -37 251 -133 93 -78 151 -110 210 -118&#10;33 -5 44 -1 66 22 23 23 27 33 23 69 -10 87 -118 215 -264 311 -116 77 -135&#10;103 -163 215 -29 121 -67 202 -120 263 l-43 47 131 0 c180 0 227 -16 369 -122&#10;59 -44 115 -67 232 -98 l45 -11 1 -47 c1 -26 11 -74 23 -107 11 -32 21 -60 21&#10;-62 0 -1 -19 6 -42 16 -24 11 -68 25 -98 32 -30 7 -64 21 -76 31 -24 21 -38&#10;23 -52 5 -6 -7 -28 -14 -49 -15 -21 -1 -61 -7 -90 -13 -48 -9 -56 -8 -96 15&#10;-47 28 -86 33 -105 14 -35 -35 22 -73 96 -63 46 6 48 5 98 -47 28 -29 65 -74&#10;82 -99 17 -25 55 -68 84 -95 71 -65 102 -108 123 -172 21 -64 72 -122 108&#10;-122 64 0 53 84 -33 257 -45 91 -76 139 -124 191 -35 39 -69 80 -76 91 -9 19&#10;-8 21 15 21 20 0 33 -12 62 -57 20 -32 60 -94 88 -138 68 -103 86 -141 121&#10;-248 43 -133 106 -185 141 -117 22 42 5 124 -57 275 -32 77 -61 151 -65 163&#10;-6 21 -5 22 12 14 10 -6 61 -51 113 -101 52 -50 105 -94 117 -97 36 -10 63 12&#10;63 51 0 72 -197 321 -315 398 -33 22 -49 36 -35 32 31 -9 106 -72 190 -161&#10;185 -193 223 -224 261 -204 23 13 22 8 19 200 -2 168 13 311 36 348 22 34 59&#10;45 97 28 79 -33 298 -316 277 -357 -15 -27 -12 -85 5 -99 42 -35 70 22 40 80&#10;-18 35 -22 27 55 118 59 70 174 147 242 162 66 15 128 1 157 -36 11 -14 25&#10;-50 32 -81 11 -48 10 -68 -4 -136 -16 -80 -99 -272 -121 -280 -6 -2 -99 16&#10;-206 40 -155 35 -217 45 -300 46 -95 2 -109 0 -150 -23 -24 -14 -55 -40 -67&#10;-59 -42 -62 -30 -131 68 -395 75 -203 107 -239 177 -202 65 35 306 303 415&#10;462 l76 110 58 12 c32 7 92 21 133 32 93 25 262 53 440 75 74 9 203 29 285 45&#10;83 16 189 36 238 44 99 19 152 35 241 76 122 57 245 91 348 97 91 5 100 4 150&#10;-20 30 -15 63 -41 76 -60 30 -46 30 -125 -2 -192 -52 -113 -259 -330 -361&#10;-380 -68 -34 -127 -35 -290 -5 -196 36 -329 11 -463 -89 -38 -28 -89 -60 -113&#10;-70 l-44 -20 -3 20 c-5 30 24 112 59 170 24 38 43 55 85 75 102 48 252 171&#10;274 225 12 27 11 33 -9 52 -20 20 -32 22 -134 22 -186 0 -665 -50 -779 -82&#10;-84 -23 -116 -69 -79 -114 l19 -24 289 -1 c324 -1 348 -5 348 -59 0 -25 -8&#10;-34 -60 -63 -69 -38 -101 -66 -120 -102 -18 -36 1 -89 42 -115 l32 -20 -6&#10;-105 c-6 -118 10 -277 33 -327 45 -93 124 -21 124 113 0 74 27 241 51 312 20&#10;60 61 122 80 122 20 0 7 -52 -31 -123 -50 -93 -80 -207 -80 -307 0 -61 4 -80&#10;17 -92 49 -43 98 10 168 179 21 51 49 108 62 125 l25 33 -7 -67 c-9 -92 9&#10;-173 46 -210 24 -24 32 -27 49 -18 29 15 49 60 56 127 9 77 29 132 61 165 15&#10;16 76 47 152 78 129 52 250 121 434 246 112 77 214 121 342 150 67 15 133 18&#10;415 20 202 1 363 6 405 13 91 15 262 97 243 117 -4 3 -25 -8 -49 -25 -99 -73&#10;-235 -92 -626 -90 -261 2 -297 0 -390 -19 -142 -31 -241 -75 -385 -174 -151&#10;-105 -281 -179 -371 -213 -114 -43 -186 -83 -207 -117 -10 -17 -26 -71 -35&#10;-120 -19 -102 -31 -134 -54 -143 -33 -13 -71 68 -71 150 0 22 4 66 10 98 7 46&#10;16 64 44 91 39 36 90 135 84 164 -2 10 -14 18 -28 20 -34 3 -63 -42 -86 -133&#10;-11 -43 -28 -81 -45 -100 -36 -40 -71 -105 -103 -190 -36 -95 -75 -150 -106&#10;-150 -39 0 -46 50 -26 171 13 78 26 120 66 201 53 107 59 133 36 152 -11 9&#10;-21 6 -45 -15 -18 -14 -38 -39 -46 -53 -26 -51 -55 -190 -65 -310 -10 -126&#10;-27 -187 -55 -198 -44 -16 -74 92 -75 272 0 145 7 185 32 185 26 0 70 24 160&#10;87 144 100 265 122 471 83 222 -42 274 -24 453 154 176 175 232 271 222 378&#10;-9 93 -94 159 -215 166 -101 7 -232 -28 -458 -123 -67 -28 -131 -45 -251 -66&#10;-90 -15 -180 -32 -201 -38 -44 -11 -203 -35 -348 -51 -107 -12 -340 -58 -442&#10;-87 -34 -9 -65 -15 -68 -11 -4 3 9 37 29 76 56 111 78 187 78 274 1 91 -20&#10;140 -73 176 -29 21 -44 23 -105 20 -93 -4 -160 -44 -272 -158 -74 -75 -85 -83&#10;-95 -68 -7 9 -34 51 -61 94 -50 78 -144 183 -193 215 -41 28 -95 25 -126 -7&#10;-39 -39 -50 -107 -52 -336 -1 -115 -3 -212 -4 -218 0 -5 -11 -10 -23 -10 -14&#10;0 -73 52 -184 164 -168 170 -240 225 -270 208 -12 -7 -44 -2 -106 14 -103 28&#10;-134 42 -202 96 -120 95 -217 123 -391 112 l-114 -7 -58 35 c-112 66 -241 108&#10;-335 108 -48 0 -59 -4 -72 -22z m239 -29 c87 -28 186 -79 154 -79 -9 0 -82 11&#10;-162 25 -215 37 -253 53 -196 82 31 16 92 7 204 -28z m1101 -377 c68 -44 174&#10;-161 245 -270 57 -86 65 -108 49 -127 -25 -30 -53 -15 -145 74 -50 48 -109&#10;100 -131 115 -35 23 -45 37 -67 104 -27 76 -35 142 -19 142 5 0 36 -17 68 -38z&#10;m-571 -104 c36 -16 31 -28 -13 -28 -36 0 -62 14 -62 32 0 12 45 10 75 -4z&#10;m-895 -5 c0 -20 -192 -143 -222 -143 -74 0 35 89 164 134 50 18 58 19 58 9z&#10;m2345 -24 c17 -31 14 -59 -4 -59 -17 0 -33 40 -27 66 8 31 12 30 31 -7z&#10;m-1189 -11 c9 -18 43 -62 75 -97 101 -110 227 -387 192 -422 -17 -17 -67 15&#10;-85 53 -9 18 -30 63 -48 100 -23 51 -46 81 -92 120 -33 29 -79 80 -101 113&#10;-23 33 -58 77 -80 99 -21 21 -37 39 -35 41 4 4 108 22 135 24 16 1 27 -9 39&#10;-31z m172 -9 c86 -26 113 -48 137 -115 10 -27 41 -103 68 -169 28 -66 52 -139&#10;55 -162 6 -57 -4 -93 -26 -93 -31 0 -61 43 -87 122 -39 119 -60 161 -143 291&#10;-97 150 -95 147 -85 147 4 0 41 -10 81 -21z m2446 -138 c48 -12 60 -23 51 -50&#10;-12 -40 -119 -135 -220 -195 -63 -38 -85 -44 -85 -22 0 27 -40 64 -77 71 -21&#10;4 -157 7 -302 6 -159 0 -271 4 -282 10 -26 13 -24 41 5 68 31 30 161 55 391&#10;76 99 10 232 23 295 30 145 16 176 17 224 6z m-1269 -51 c105 -23 192 -44 194&#10;-46 8 -7 -105 -168 -185 -264 -162 -196 -273 -300 -320 -300 -40 0 -74 69&#10;-166 340 -66 194 -52 258 67 307 54 23 203 9 410 -37z m944 -332 c-15 -29 -33&#10;-77 -39 -105 -13 -61 -27 -66 -64 -22 -31 37 -32 52 -6 89 18 25 112 89 132&#10;90 3 0 -7 -24 -23 -52z m497 -85 c-9 -28 -30 -63 -47 -79 l-31 -29 8 30 c22&#10;92 58 155 77 136 6 -6 3 -28 -7 -58z"/>
</g>
</svg>