<svg preserveAspectRatio="xMidYMid meet" viewBox="52.58199195171026 305.41014 626.5714285714286 152.88" xmlns="http://www.w3.org/2000/svg" version="1.0" style="max-height: 500px" width="626.5714285714286" height="152.88">

<g stroke="none" fill="#000000" transform="translate(0.000000,735.000000) scale(0.100000,-0.100000)">
<path d="M3062 4249 c-23 -12 -52 -35 -63 -51 -55 -77 -81 -261 -60 -423 28&#10;-217 135 -438 289 -598 57 -58 64 -69 51 -82 -43 -42 -269 -139 -386 -165&#10;-106 -24 -118 5 -108 265 7 163 6 183 -10 198 -25 25 -58 21 -101 -14 -45 -36&#10;-94 -63 -101 -56 -2 3 3 27 12 54 37 107 38 192 2 215 -46 29 -107 -19 -127&#10;-100 -17 -74 -6 -137 32 -175 36 -36 36 -36 -56 -176 -85 -128 -146 -194 -177&#10;-189 l-24 3 4 166 c4 217 -10 249 -112 249 -54 0 -107 -42 -165 -131 l-40 -60&#10;-4 128 c-4 107 -8 135 -26 170 -33 64 -77 79 -132 47 -38 -23 -94 -111 -120&#10;-189 -12 -36 -24 -65 -26 -65 -3 0 -2 26 2 58 6 56 5 60 -22 81 -35 27 -70 22&#10;-102 -17 -168 -202 -217 -246 -290 -263 -67 -15 -108 6 -202 104 -95 99 -141&#10;130 -218 146 -56 12 -132 1 -184 -25 -48 -24 -40 -34 9 -12 34 15 67 22 113&#10;21 85 0 152 -34 222 -110 120 -130 154 -153 230 -153 32 0 59 9 98 33 49 29&#10;70 51 166 172 l31 39 -1 -110 c-1 -127 15 -198 51 -221 42 -27 66 -7 80 68 17&#10;90 79 273 116 342 34 64 63 89 74 62 9 -25 -3 -186 -22 -299 -17 -96 -17 -99&#10;3 -125 16 -21 28 -26 60 -25 53 1 65 12 108 97 61 121 122 197 160 197 33 0&#10;36 -24 19 -145 -22 -156 -20 -226 6 -259 86 -110 236 3 400 301 27 49 41 64&#10;69 73 19 6 40 13 46 16 7 3 9 -27 6 -99 -5 -110 9 -221 34 -268 22 -44 67 -63&#10;134 -56 104 11 346 108 453 181 21 14 40 26 42 26 2 0 24 -14 47 -30 55 -38&#10;145 -70 201 -70 60 0 131 38 197 106 l55 57 -65 -53 c-35 -29 -79 -59 -97 -66&#10;-43 -18 -105 -18 -151 1 -50 22 -132 75 -132 87 0 5 38 46 84 91 140 137 300&#10;344 357 462 47 97 69 192 69 302 0 95 -18 152 -64 201 -37 39 -102 72 -142 72&#10;-90 -1 -178 -89 -235 -235 l-11 -30 -12 40 c-58 188 -208 281 -344 214z m168&#10;-54 c70 -36 133 -149 151 -269 17 -110 19 -118 31 -114 6 2 22 46 35 98 47&#10;185 137 300 236 300 72 0 137 -54 158 -133 15 -54 5 -235 -15 -300 -20 -64&#10;-69 -160 -113 -222 -119 -166 -335 -405 -368 -405 -19 0 -134 138 -182 219&#10;-100 169 -149 323 -160 496 -10 166 24 296 85 329 35 20 105 20 142 1z m-665&#10;-763 c-11 -50 -21 -79 -25 -71 -9 17 5 122 23 164 20 51 21 1 2 -93z"/>
<path d="M4920 3572 c-64 -65 -66 -212 -3 -262 l26 -21 -23 -42 c-44 -79 -132&#10;-206 -175 -253 -32 -34 -49 -45 -66 -42 l-24 3 3 157 c4 169 -4 217 -41 243&#10;-32 23 -98 19 -138 -8 -30 -20 -104 -109 -134 -161 -7 -12 -10 20 -10 111 0&#10;117 -2 132 -25 178 -56 112 -150 79 -224 -79 -18 -39 -38 -82 -44 -96 -10 -21&#10;-11 -17 -6 27 5 47 3 55 -20 78 -54 54 -111 16 -127 -85 -13 -79 -6 -215 15&#10;-263 13 -33 41 -57 65 -57 18 0 41 31 41 55 0 41 69 256 110 342 35 75 68 112&#10;84 96 12 -12 6 -130 -15 -267 -20 -138 -20 -140 -1 -165 43 -58 110 -34 154&#10;53 62 123 137 216 174 216 30 0 34 -31 18 -138 -16 -108 -18 -223 -3 -256 7&#10;-14 25 -31 41 -39 96 -47 211 52 353 305 42 73 55 88 85 98 19 6 40 13 45 16&#10;6 2 9 -34 6 -103 -9 -290 85 -406 218 -268 24 26 44 45 45 43 45 -99 120 -129&#10;217 -87 84 37 116 126 86 241 l-15 56 66 17 c37 9 105 37 152 63 76 42 91 47&#10;150 47 98 0 162 -35 244 -135 86 -103 124 -132 185 -138 90 -8 151 29 262 160&#10;52 62 52 62 -28 -16 -176 -173 -264 -168 -403 19 -48 64 -63 78 -130 111 -46&#10;23 -68 28 -130 28 -63 0 -83 -4 -125 -27 -106 -57 -177 -88 -220 -94 l-45 -6&#10;-25 58 c-39 87 -43 135 -14 169 33 38 98 47 128 17 11 -11 21 -32 21 -46 0&#10;-16 6 -25 15 -25 10 0 15 10 15 34 0 117 -239 144 -305 33 -15 -25 -19 -48&#10;-17 -105 1 -63 -3 -85 -34 -165 -64 -162 -119 -257 -149 -257 -38 0 -43 90&#10;-19 360 6 64 4 79 -10 93 -26 25 -59 21 -102 -14 -45 -36 -94 -63 -101 -56 -2&#10;3 3 27 13 54 9 26 19 80 21 119 4 57 2 73 -12 87 -25 25 -63 21 -95 -11z m65&#10;-138 c-15 -70 -35 -107 -35 -66 0 30 21 133 33 161 l11 26 4 -23 c2 -13 -4&#10;-57 -13 -98z m454 -245 c-43 -33 -45 -24 -17 51 l10 25 15 -29 c15 -28 14 -30&#10;-8 -47z m66 -71 c19 -65 19 -101 0 -138 -28 -54 -80 -65 -120 -25 -45 44 -30&#10;124 32 181 52 48 69 45 88 -18z"/>
</g>
</svg>